<?xml version="1.0" encoding="utf-8"?>
<svg id="geolonia-globe-icon" viewBox="0 0 30 30" xmlns="http://www.w3.org/2000/svg">
  <g id="global" transform="matrix(1, 0, 0, 1, -1, -1)">
    <g>
      <path d="M4.229,24.972c-0.154,0-0.308-0.072-0.405-0.207C-0.5,18.774,0.16,10.627,5.393,5.393    c5.85-5.848,15.365-5.848,21.215,0c0.195,0.195,0.195,0.512,0,0.707s-0.512,0.195-0.707,0C20.441,0.643,11.559,0.643,6.1,6.1    c-4.884,4.886-5.5,12.489-1.466,18.079c0.162,0.225,0.111,0.537-0.112,0.698C4.433,24.941,4.33,24.972,4.229,24.972z" fill="#263238"/>
      <path d="M16,30.993c-3.842,0-7.683-1.462-10.607-4.386c-0.195-0.195-0.195-0.512,0-0.707s0.512-0.195,0.707,0    c5.459,5.457,14.342,5.457,19.801,0c4.873-4.876,5.496-12.471,1.48-18.059c-0.161-0.225-0.109-0.537,0.114-0.698    c0.225-0.161,0.537-0.11,0.698,0.114c4.303,5.987,3.636,14.125-1.586,19.35C23.683,29.531,19.842,30.992,16,30.993z" fill="#263238"/>
      <path d="M5.746,29.214c-0.276,0-0.5-0.224-0.5-0.5v-2.46c0-0.276,0.224-0.5,0.5-0.5h2.461    c0.276,0,0.5,0.224,0.5,0.5s-0.224,0.5-0.5,0.5H6.246v1.96C6.246,28.99,6.022,29.214,5.746,29.214z" fill="#263238"/>
      <path d="M26.254,6.246h-2.461c-0.276,0-0.5-0.224-0.5-0.5s0.224-0.5,0.5-0.5h1.961v-1.96    c0-0.276,0.224-0.5,0.5-0.5s0.5,0.224,0.5,0.5v2.46C26.754,6.022,26.53,6.246,26.254,6.246z" fill="#263238"/>
    </g>
    <g>
      <g>
        <path d="M16,27C9.935,27,5,22.065,5,16S9.935,5,16,5s11,4.935,11,11S22.065,27,16,27z M16,6     C10.486,6,6,10.486,6,16s4.486,10,10,10s10-4.486,10-10S21.514,6,16,6z" fill="#263238"/>
      </g>
      <path d="M16,27C9.935,27,5,22.065,5,16S9.935,5,16,5s11,4.935,11,11S22.065,27,16,27z M16,6    C10.486,6,6,10.486,6,16s4.486,10,10,10s10-4.486,10-10S21.514,6,16,6z" fill="#263238"/>
      <path d="M23.646,23.68c-0.047,0-0.094-0.007-0.141-0.021c-4.881-1.434-10.131-1.434-15.012,0    c-0.264,0.077-0.543-0.072-0.62-0.339c-0.078-0.265,0.073-0.542,0.339-0.62c5.063-1.488,10.512-1.488,15.574,0    c0.266,0.078,0.417,0.355,0.339,0.62C24.063,23.539,23.863,23.68,23.646,23.68z" fill="#263238"/>
      <path d="M16,10.422c-1.822,0-3.649-0.182-5.433-0.54c-0.271-0.055-0.446-0.318-0.392-0.589    c0.055-0.271,0.324-0.445,0.589-0.392c4.203,0.846,8.613,0.652,12.741-0.561c0.263-0.079,0.543,0.072,0.62,0.339    c0.078,0.265-0.073,0.542-0.339,0.62C21.256,10.044,18.636,10.422,16,10.422z" fill="#263238"/>
      <path d="M16.504,26.975c-0.159,0-0.316-0.076-0.413-0.218c-0.155-0.229-0.097-0.539,0.131-0.695    c3.354-2.289,5.356-6.05,5.356-10.062s-2.002-7.772-5.356-10.062c-0.228-0.156-0.286-0.467-0.131-0.695    c0.156-0.228,0.467-0.284,0.695-0.131c3.627,2.476,5.792,6.546,5.792,10.888s-2.165,8.412-5.792,10.888    C16.699,26.946,16.602,26.975,16.504,26.975z" fill="#263238"/>
      <path d="M15.496,26.975c-0.098,0-0.195-0.028-0.282-0.087C11.587,24.412,9.422,20.342,9.422,16    c0-3.133,1.129-6.169,3.178-8.55c0.181-0.21,0.497-0.231,0.705-0.053c0.209,0.18,0.233,0.496,0.053,0.705    c-1.893,2.199-2.936,5.004-2.936,7.897c0,4.012,2.002,7.772,5.356,10.062c0.228,0.156,0.286,0.467,0.131,0.695    C15.813,26.898,15.655,26.975,15.496,26.975z" fill="#263238"/>
      <g>
        <path d="M16,26.447c-0.276,0-0.5-0.224-0.5-0.5V6.053c0-0.276,0.224-0.5,0.5-0.5s0.5,0.224,0.5,0.5v19.895     C16.5,26.224,16.276,26.447,16,26.447z" fill="#263238"/>
      </g>
      <g>
        <path d="M25.947,16.5H7.553c-0.276,0-0.5-0.224-0.5-0.5s0.224-0.5,0.5-0.5h18.395c0.276,0,0.5,0.224,0.5,0.5     S26.224,16.5,25.947,16.5z" fill="#263238"/>
      </g>
    </g>
  </g>
</svg>
