<svg viewBox="0 0 28 38" xmlns="http://www.w3.org/2000/svg"><g fill="none" fill-rule="evenodd"><ellipse fill-opacity=".3" fill="#000" cx="14" cy="36.5" rx="3" ry="1.5"/><g transform="translate(1 1)"><path d="M26.495 13.018l.002.05c.011.32-.006.775-.068 1.295-.003.062-.003.062-.005.076l.001-.008a16.517 16.517 0 01-.247 1.5c-1.208 5.775-5.112 12.154-12.865 18.457l-.344.28-.319-.309-.537-.518-.621-.603c-.511-.498-.978-.96-1.445-1.434a68.208 68.208 0 01-3.37-3.656C2.894 23.714.411 19.456-.288 15.414A12.974 12.974 0 01-.48 13.43a2.981 2.981 0 00-.007-.132v-.013a3.206 3.206 0 01-.012-.252c0-.055 0-.055.003-.09v-.002l.002-.028-.002-.048a1.288 1.288 0 01-.003-.157l.024-.475h.01C-.05 5.12 5.827-.5 12.998-.5c7.45 0 13.49 6.05 13.497 13.518zm-.07 1.413v.003z" stroke="#FFF" fill="#666" fill-rule="nonzero" class="left"/><path d="M13 0c7.176 0 12.995 5.834 12.995 13.033 0 0 .031.472-.066 1.33v.011a15.863 15.863 0 01-.24 1.455c-.777 3.71-3.463 10.668-12.689 18.17V0z" fill="#2D2D2D" fill-rule="nonzero" class="right"/><circle fill="#FFF" cx="13" cy="13" r="6"/></g></g></svg>