<svg xmlns="http://www.w3.org/2000/svg" viewBox="0 0 51 69"><ellipse cx="25.198" cy="66.341" rx="6" ry="2.5" fill="rgba(0,0,0,.31)"/><g transform="matrix(.9988 0 0 .99757 0 .999)" fill="none" fill-rule="evenodd"><path d="M49.254 26.557l.002.058c.02.58-.011 1.414-.131 2.468l-.008.064c-.052.286-.099.521-.147.747-2.26 10.768-9.572 22.686-24.125 34.484l-.344.28-.318-.308-1.014-.977c-.448-.431-.806-.778-1.17-1.132a192.03 192.03 0 01-2.723-2.693 128.071 128.071 0 01-6.338-6.857c-7.09-8.29-11.74-16.243-13.042-23.755a23.933 23.933 0 01-.358-3.673 6.105 6.105 0 00-.015-.267l-.001-.024a5.67 5.67 0 01-.02-.444c0-.044.001-.078.005-.136v-.006a1.192 1.192 0 000-.2 1.996 1.996 0 01-.005-.247l.024-.475h.02C.105 10.112 11.092-.5 24.53-.5c13.824 0 25.03 11.204 25.03 25.028l-.007.076-.299 1.953z" stroke="#FFF" fill="#6E6E6E" fill-rule="nonzero" class="left"/><path d="M25.47 0C38.8.25 49.529 11.133 49.529 24.524l-.307 2.004s.058.89-.125 2.504l-.002.02c-.045.246-.092.49-.145.735-1.465 6.983-6.535 20.08-23.95 34.199l.469-.384z" fill="#373737" fill-rule="nonzero" class="right"/><circle fill="#FFF" cx="25.5" cy="24.5" r="13.5"/></g></svg>